<svg height="1rem" viewBox="0 -1 401.52289 401" width="1rem" xmlns="http://www.w3.org/2000/svg">
    <defs>
        <symbol id="icon-edit" viewBox="0 -1 401.52289 401">
            <path d="m370.589844 250.972656c-5.523438 0-10 4.476563-10 10v88.789063c-.019532 16.5625-13.4375 29.984375-30 30h-280.589844c-16.5625-.015625-29.980469-13.4375-30-30v-260.589844c.019531-16.558594 13.4375-29.980469 30-30h88.789062c5.523438 0 10-4.476563 10-10 0-5.519531-4.476562-10-10-10h-88.789062c-27.601562.03125-49.96875 22.398437-50 50v260.59375c.03125 27.601563 22.398438 49.96875 50 50h280.589844c27.601562-.03125 49.96875-22.398437 50-50v-88.792969c0-5.523437-4.476563-10-10-10zm0 0"/>
            <path d="m376.628906 13.441406c-17.574218-17.574218-46.066406-17.574218-63.640625 0l-178.40625 178.40625c-1.222656 1.222656-2.105469 2.738282-2.566406 4.402344l-23.460937 84.699219c-.964844 3.472656.015624 7.191406 2.5625 9.742187 2.550781 2.546875 6.269531 3.527344 9.742187 2.566406l84.699219-23.464843c1.664062-.460938 3.179687-1.34375 4.402344-2.566407l178.402343-178.410156c17.546875-17.585937 17.546875-46.054687 0-63.640625zm-220.257812 184.90625 146.011718-146.015625 47.089844 47.089844-146.015625 146.015625zm-9.40625 18.875 37.621094 37.625-52.039063 14.417969zm227.257812-142.546875-10.605468 10.605469-47.09375-47.09375 10.609374-10.605469c9.761719-9.761719 25.589844-9.761719 35.351563 0l11.738281 11.734375c9.746094 9.773438 9.746094 25.589844 0 35.359375zm0 0"/>
        </symbol>

        <symbol id="icon-delete" viewBox="0 0 365.696 365.696">
            <path d="m243.1875 182.859375 113.132812-113.132813c12.5-12.5 12.5-32.765624 0-45.246093l-15.082031-15.082031c-12.503906-12.503907-32.769531-12.503907-45.25 0l-113.128906 113.128906-113.132813-113.152344c-12.5-12.5-32.765624-12.5-45.246093 0l-15.105469 15.082031c-12.5 12.503907-12.5 32.769531 0 45.25l113.152344 113.152344-113.128906 113.128906c-12.503907 12.503907-12.503907 32.769531 0 45.25l15.082031 15.082031c12.5 12.5 32.765625 12.5 45.246093 0l113.132813-113.132812 113.128906 113.132812c12.503907 12.5 32.769531 12.5 45.25 0l15.082031-15.082031c12.5-12.503906 12.5-32.769531 0-45.25zm0 0"/>
        </symbol>
    </defs>
</svg>